<?xml version="1.0" encoding="UTF-8"?>
<svg id="_图层_1" data-name="图层 1" xmlns="http://www.w3.org/2000/svg" xmlns:xlink="http://www.w3.org/1999/xlink" viewBox="0 0 349.84 349.86">
  <defs>
    <style>
      .cls-1 {
        fill: #474747;
      }

      .cls-1, .cls-2 {
        stroke-width: 0px;
      }

      .cls-2 {
        fill: none;
      }

      .cls-3 {
        clip-path: url(#clippath);
      }
    </style>
    <clipPath id="clippath">
      <rect class="cls-2" x=".03" width="349.81" height="349.81"/>
    </clipPath>
  </defs>
  <g id="_组_11" data-name="组 11">
    <g class="cls-3">
      <g id="_组_10" data-name="组 10">
        <path id="_路径_19" data-name="路径 19" class="cls-1" d="M171.05,349.82c-45.56.89-89.47-17.1-121.31-49.7C17.13,268.28-.86,224.37.03,178.81c-.89-45.57,17.09-89.48,49.7-121.32C81.58,24.88,125.48,6.89,171.05,7.79c24.33-.05,48.39,5.15,70.55,15.22,22.26,10.02,41.98,24.9,57.72,43.56V7.79h42.75v149.64h-149.65v-42.75h89.78c-11.05-19.62-27.22-35.87-46.77-47.03-19.55-11.34-41.78-17.24-64.38-17.1-34.15-.62-67.04,12.92-90.86,37.4-24.48,23.82-38.02,56.71-37.4,90.86-.61,34.15,12.93,67.03,37.4,90.85,23.82,24.49,56.71,38.03,90.86,37.42,26.63.25,52.65-7.98,74.29-23.52,21.71-15.18,38-36.9,46.49-61.99h44.89c-9.33,36.79-30.78,69.35-60.89,92.45-29.79,23.59-66.78,36.23-104.77,35.81"/>
      </g>
    </g>
  </g>
</svg>