<?xml version="1.0" encoding="utf-8"?>
<!-- Generator: Adobe Illustrator 28.2.0, SVG Export Plug-In . SVG Version: 6.00 Build 0)  -->
<svg version="1.1" id="图层_1" xmlns="http://www.w3.org/2000/svg" xmlns:xlink="http://www.w3.org/1999/xlink" x="0px" y="0px"
	 viewBox="0 0 800 800" style="enable-background:new 0 0 800 800;" xml:space="preserve">
<style type="text/css">
	.st0{fill-rule:evenodd;clip-rule:evenodd;fill:#6495ED;}
</style>
<path class="st0" d="M175.6,2.6c9.5-4.3,20.7-2.7,28.5,4.1L685.8,424c8.3,7.1,11.3,18.6,7.7,28.9c-3.6,10.3-13.1,17.4-24,17.9
	l-177.8,7.8l103,226.3c6.1,13.4,0.2,29.2-13.2,35.3l-114.8,52.3c-13.4,6.1-29.2,0.2-35.3-13.2L328.2,553.1L206,681.9
	c-7.5,7.9-19.1,10.5-29.2,6.4c-10.1-4-16.8-13.9-16.8-24.8V26.9C160,16.4,166.1,6.9,175.6,2.6z M213.3,85.3v511.4l103.4-109
	c6.1-6.4,15-9.4,23.7-8c8.7,1.5,16.2,7.2,19.9,15.2l108.5,238l66.3-30.2l-108.3-238c-3.7-8.1-3.1-17.4,1.5-25
	c4.6-7.6,12.7-12.3,21.6-12.7l150.4-6.6L213.3,85.3z"/>
</svg>
